<svg id="Capa_1" enable-background="new 0 0 512 512" height="512" viewBox="0 0 512 512" width="512" xmlns="http://www.w3.org/2000/svg"><g><path d="m512 256c0 71.54-29.35 136.23-76.66 182.67-3.36 3.3-11.218-2.836-14.758.264-4.115 3.62-3.929 16.456-8.272 19.81-30.401 23.475-66.227 40.265-105.27 48.166-10.92 2.21-23.614-7.939-34.994-7.179-5.8.4-11.16 0-17.07 0-2.8 0-2.994.09-5.764 0-5.59-.18-7.589-5.509-13.079-6.039-6.84-.66-18.723 3.195-25.393 1.995-16.34-2.91-32.15-6.767-47.26-12.637-9.85-3.81-16.781-7.455-26.001-12.415-25.35-13.64-50.759-20.506-70.079-41.526-41.85-45.569-67.4-106.359-67.4-173.109 0-141.38 114.62-256 256-256s256 114.62 256 256z" fill="#f5dd62"/><g><path d="m370.106 174.515h15v23.406h-15z" fill="#545058" transform="matrix(.248 -.969 .969 .248 103.69 505.958)"/><path d="m307.04 435.7v71.21c-16.49 3.34-33.56 5.09-51.04 5.09-15.445 0-30.57-1.368-45.262-3.989-8.172-1.458-16.209-15.319-24.092-17.532-7.883-2.214-15.613 7.219-23.169 4.289-36.944-14.328-69.737-36.982-96.077-65.658 3.39-53.23 47.62-95.34 101.71-95.34h35.99c56.3 0 101.94 45.63 101.94 101.93z" fill="#80b4fb"/><path d="m189.734 369.944h-5.251c-11.6 0-21.003 9.404-21.003 21.003 0 11.6 9.404 21.003 21.003 21.003h5.251c11.6 0 21.003-9.404 21.003-21.003 0-11.599-9.403-21.003-21.003-21.003z" fill="#faf7eb"/><path d="m210.74 432.66v75.34c-16.34-2.91-32.15-7.37-47.26-13.24v-62.1c0-13.04 10.58-23.62 23.63-23.62s23.63 10.58 23.63 23.62z" fill="#faf7eb"/><path d="m220.95 335c-48.78 7.6-86.1 49.8-86.1 100.7v45.87c-25.35-13.64-48.13-31.44-67.45-52.46 3.39-53.23 47.63-95.34 101.71-95.34h35.99c5.39 0 10.68.42 15.85 1.23z" fill="#61a2f9"/><path d="m250.935 366-42.083-42.083-21.748 21.748-21.748-21.748-42.084 42.083c-11.615 11.615-11.615 30.446 0 42.06 11.615 11.615 30.446 11.615 42.06 0l21.771-21.771 21.771 21.771c11.615 11.615 30.446 11.615 42.06 0 11.615-11.615 11.615-30.446.001-42.06z" fill="#61a2f9"/><circle cx="65.604" cy="214.074" fill="#ebb99a" r="44.749"/><path d="m45.641 214.071c0 5.732 2.412 10.902 6.285 14.536.529-4.881 4.666-8.68 9.688-8.68 5.377 0 9.737 4.361 9.737 9.746 0 1.321-.264 2.585-.743 3.741 8.606-2.23 14.957-10.043 14.957-19.343 0-11.026-8.936-19.962-19.962-19.962s-19.962 8.937-19.962 19.962z" fill="#dc9e80"/><path d="m149.084 291.231v57.039c0 21.001 17.018 38.02 38.019 38.02s38.029-17.018 38.029-38.02v-57.039z" fill="#f0cfba"/><path d="m198.919 384.411c-3.719 1.219-7.693 1.877-11.816 1.877-21.001 0-38.019-17.018-38.019-38.019v-57.037h23.624v57.037c0 16.878 10.991 31.186 26.211 36.142z" fill="#ebb99a"/><path d="m149.084 291.231v50.569c10.729 2.773 21.992 4.25 33.589 4.25h42.46v-54.819z" fill="#ebb99a"/><path d="m185.181 87.679h78.332c65.31 0 118.255 52.944 118.255 118.255 0 65.31-52.944 118.255-118.255 118.255h-78.332c-65.31 0-118.255-52.944-118.255-118.255 0-65.31 52.945-118.255 118.255-118.255z" fill="#f0cfba"/><path d="m358.47 182.08c0 11.72-4.44 22.39-11.74 30.43-2.85-3.34-6.18-6.26-9.88-8.65-7.08-4.59-15.53-7.25-24.59-7.25-5.56 0-10.89 1-15.81 2.83-6.87 2.56-12.96 6.73-17.79 12.05-6.76-7.92-10.84-18.18-10.84-29.41 0-25.04 20.29-45.33 45.32-45.33 25.04 0 45.33 20.29 45.33 45.33z" fill="#faf7eb"/><path d="m339.34 193.73c0 3.66-.9 7.1-2.49 10.13-7.08-4.59-15.53-7.25-24.59-7.25-5.56 0-10.89 1-15.81 2.83-.5-1.82-.76-3.73-.76-5.71 0-12.05 9.77-21.82 21.82-21.82 12.06 0 21.83 9.77 21.83 21.82z" fill="#545058"/><path d="m234.11 182.08c0 11.72-4.44 22.39-11.74 30.43-1.01-1.19-2.08-2.32-3.21-3.39-8.13-7.75-19.14-12.51-31.26-12.51-1.96 0-3.9.13-5.8.37-10.97 1.4-20.72 6.73-27.79 14.52-6.77-7.92-10.85-18.19-10.85-29.42 0-25.04 20.29-45.33 45.33-45.33 25.03 0 45.32 20.29 45.32 45.33z" fill="#faf7eb"/><path d="m178.33 289.555c21.404 21.395 50.965 34.634 83.627 34.634h-76.776c-32.654 0-62.214-13.238-83.618-34.634-21.395-21.404-34.634-50.965-34.634-83.618 0-39.424 9.126-84.513 38.787-105.999 19.473-14.106 53.582-12.253 79.465-12.253h76.776c-65.316 0-118.261 52.945-118.261 118.252 0 32.653 13.239 62.214 34.634 83.618z" fill="#ebb99a"/><path d="m343.035 247.526c-32.208 0-58.41-26.203-58.41-58.41 0-32.208 26.203-58.41 58.41-58.41s58.41 26.203 58.41 58.41-26.203 58.41-58.41 58.41zm0-101.82c-23.937 0-43.41 19.474-43.41 43.41s19.474 43.41 43.41 43.41 43.41-19.474 43.41-43.41c0-23.937-19.474-43.41-43.41-43.41z" fill="#423f46"/><path d="m267.352 179.405-4.743-14.23c9.568-3.189 20.153-3.194 29.733 0l-4.744 14.23c-6.514-2.172-13.741-2.169-20.246 0z" fill="#423f46"/><path d="m294.333 216.167c-11.6 11.6-30.407 11.6-42.007 0l-5.152-5.152 21.004-21.004c7.223-7.223 18.933-7.223 26.155 0 7.223 7.223 7.223 18.933 0 26.156z" fill="#ebb99a"/><path d="m216.92 247.526c-32.208 0-58.41-26.203-58.41-58.41 0-32.208 26.203-58.41 58.41-58.41s58.41 26.203 58.41 58.41c.001 32.207-26.202 58.41-58.41 58.41zm0-101.82c-23.937 0-43.41 19.474-43.41 43.41s19.474 43.41 43.41 43.41 43.41-19.474 43.41-43.41c.001-23.937-19.473-43.41-43.41-43.41z" fill="#423f46"/><path d="m241.689 254.061c1.919 0 3.839.732 5.303 2.197 6.541 6.541 17.184 6.541 23.725 0 2.929-2.928 7.678-2.929 10.606 0 2.929 2.929 2.929 7.678 0 10.607-12.39 12.389-32.548 12.389-44.938 0-2.929-2.929-2.929-7.678 0-10.607 1.465-1.464 3.385-2.197 5.304-2.197z" fill="#ebb99a"/><path d="m384.446 20.154h-182.898c-28.651 0-51.876 23.226-51.876 51.876 0 28.651 23.226 51.876 51.876 51.876h100.852c45.312 0 82.045-36.733 82.045-82.045v-21.707z" fill="#9d6b6b"/><g fill="#8b5e5e"><path d="m212.088 108.706c9.39 9.39 22.36 15.2 36.68 15.2h-47.22c-14.32 0-27.3-5.81-36.68-15.2-9.39-9.39-15.2-22.35-15.2-36.68 0-28.65 23.23-51.88 51.88-51.88h47.22c-28.65 0-51.87 23.23-51.87 51.88 0 14.33 5.81 27.29 15.19 36.68z"/><path d="m113.838 20.154c-26.124 0-47.301 21.178-47.301 47.301v9.15c0 26.124 21.178 47.301 47.301 47.301 26.124 0 47.301-21.178 47.301-47.301v-9.15c0-26.124-21.177-47.301-47.301-47.301z"/><path d="m66.842 221.674h-.305v-156.627l31.259-6.318v131.991c0 17.095-13.859 30.954-30.954 30.954z"/></g><path d="m164.207 196.396-98.524-24.387c-3.185-.788-5.488-3.555-5.685-6.83-.304-5.05 4.378-8.947 9.289-7.731l98.526 24.388z" fill="#423f46"/><path d="m225.51 193.73c0 6.01-2.42 11.45-6.35 15.39-8.13-7.75-19.14-12.51-31.26-12.51-1.96 0-3.9.13-5.8.37-.16-1.06-.24-2.15-.24-3.25 0-12.05 9.77-21.82 21.82-21.82 12.06 0 21.83 9.77 21.83 21.82z" fill="#545058"/></g><path d="m271.727 316.46h139.667v171.591h-139.667z" fill="#faf7eb" transform="matrix(.995 .103 -.103 .995 43.111 -32.947)"/><g><path d="m436.54 411.16v26.32c-7.73 7.7-15.95 14.9-24.6 21.56v-47.88z" fill="#ebb99a"/><path d="m436.54 401.15v31.32c0 2.2-.43 4.29-1.2 6.2-3.36 3.3-6.8 6.51-10.34 9.61-1.59.51-3.29.79-5.05.79h-8.71c-9.17 0-16.6-7.43-16.6-16.6v-31.32c0-9.17 7.43-16.6 16.6-16.6h8.71c9.16 0 16.59 7.43 16.59 16.6z" fill="#f0cfba"/><path d="m423.404 448.71c-1.11.24-2.27.36-3.45.36h-8.71c-9.16 0-16.6-7.43-16.6-16.6v-31.32c0-9.17 7.44-16.6 16.6-16.6h8.71c1.18 0 2.34.12 3.45.36-7.52 1.59-13.15 8.26-13.15 16.24v31.32c-.001 7.98 5.63 14.65 13.15 16.24z" fill="#ebb99a"/><path d="m267.298 384.553h-8.706c-9.166 0-16.597 7.431-16.597 16.597v79.175h24.608v-31.259h.695c9.166 0 16.597-7.431 16.597-16.597v-31.319c0-9.166-7.431-16.597-16.597-16.597z" fill="#f0cfba"/><path d="m270.415 384.85c-7.67 1.46-13.47 8.2-13.47 16.3v79.17h-14.95v-79.17c0-9.17 7.43-16.6 16.59-16.6h8.71c1.07 0 2.11.1 3.12.3z" fill="#ebb99a"/><path d="m273.57 455.05v56.35c-5.8.4-11.66.6-17.57.6-8.43 0-16.77-.41-24.99-1.21v-55.74z" fill="#80b4fb"/><path d="m247.64 455.05v56.81c-5.59-.18-11.14-.54-16.63-1.07v-55.74z" fill="#61a2f9"/></g><g fill="#ebe6db"><path d="m392.725 351.373-90.855-9.379c-3.41-.352-5.889-3.402-5.537-6.812.352-3.41 3.402-5.889 6.812-5.537l90.855 9.379c3.41.352 5.889 3.402 5.537 6.812-.352 3.41-3.402 5.889-6.812 5.537z"/><path d="m390.175 376.072-90.855-9.379c-3.41-.352-5.889-3.402-5.537-6.812.352-3.41 3.402-5.889 6.812-5.537l90.855 9.379c3.41.352 5.889 3.402 5.537 6.812-.352 3.41-3.402 5.889-6.812 5.537z"/><path d="m387.625 400.77-90.855-9.379c-3.41-.352-5.889-3.402-5.537-6.812.352-3.41 3.402-5.889 6.812-5.537l90.855 9.379c3.41.352 5.889 3.402 5.537 6.812-.352 3.41-3.402 5.889-6.812 5.537z"/><path d="m385.076 425.469-90.855-9.379c-3.41-.352-5.889-3.402-5.537-6.812.352-3.41 3.402-5.889 6.812-5.537l90.855 9.379c3.41.352 5.889 3.402 5.537 6.812-.352 3.41-3.402 5.889-6.812 5.537z"/><path d="m382.526 450.167-90.855-9.379c-3.41-.352-5.889-3.402-5.537-6.812.352-3.41 3.402-5.889 6.812-5.537l90.855 9.379c3.41.352 5.889 3.402 5.537 6.812-.352 3.41-3.402 5.889-6.812 5.537z"/><path d="m379.976 474.866-90.855-9.379c-3.41-.352-5.889-3.402-5.537-6.812.352-3.41 3.402-5.889 6.812-5.537l90.855 9.379c3.41.352 5.889 3.402 5.537 6.812-.352 3.41-3.401 5.889-6.812 5.537z"/></g></g></svg>